<?xml version="1.0" standalone="no"?>
<!DOCTYPE svg PUBLIC "-//W3C//DTD SVG 1.1//EN" "http://www.w3.org/Graphics/SVG/1.1/DTD/svg11.dtd" >
<svg xmlns="http://www.w3.org/2000/svg">
<metadata></metadata>
<defs>
<font id="bowloramaregular" horiz-adv-x="1108" >
<font-face units-per-em="1000" ascent="800" descent="-200" />
<missing-glyph horiz-adv-x="545" />
<glyph unicode="&#xd;" horiz-adv-x="545" />
<glyph unicode=" "  horiz-adv-x="545" />
<glyph unicode="&#x09;" horiz-adv-x="545" />
<glyph unicode="&#xa0;" horiz-adv-x="545" />
<glyph unicode="!" horiz-adv-x="1086" d="M500 1000q-207 0 -353.5 -146.5t-146.5 -353.5t146.5 -353.5t353.5 -146.5t353.5 146.5t146.5 353.5t-146.5 353.5t-353.5 146.5zM511 100q-25 0 -43 42t-18 102q0 24 15.5 54.5t15.5 69.5q0 30 -22 82h108q-25 -61 -25 -82q0 -27 15 -62.5t15 -61.5q0 -60 -18 -102 t-43 -42zM579 482h-133q-36 88 -36 160q0 146 41 233h120q42 -87 42 -233q0 -72 -34 -160z" />
<glyph unicode="$" horiz-adv-x="1110" d="M559 -270q-19 -3 -33.5 36.5t-41.5 39.5q-43 1 -134 40q-98 42 -98 70q0 19 46 19q21 0 73.5 -6.5t74.5 -6.5q26 0 38 7q34 21 34 44q0 24 -34 69q-16 19 -82 69q-72 52 -103 86q-50 55 -50 109q0 48 42 70q27 15 87 23t73 15q24 12 34 52q8 33 26 30q22 -3 32 -25 l16 -50q8 -18 102 -47q87 -26 80 -43q-6 -16 -65 -16h-20h-20q-65 0 -76.5 -17t-11.5 -34q0 -36 58 -85q54 -42 109 -84q58 -50 58 -90q0 -56 -75 -114q-42 -30 -85 -60l-16 -56q-12 -41 -38 -45zM605 43q-16 -4 -16 -38q0 -16 5 -32q8 -23 20 -23q16 0 23 54q2 17 -7 29.5 t-25 9.5zM455 228q11 0 11 40q0 48 -23 48q-12 0 -21.5 -16t-5.5 -30q3 -16 16.5 -29t22.5 -13zM502 -400q207 0 353.5 146.5t146.5 353.5t-146.5 353.5t-353.5 146.5t-353.5 -146.5t-146.5 -353.5t146.5 -353.5t353.5 -146.5z" />
<glyph unicode="&#x26;" horiz-adv-x="1087" d="M703 376q1 -23 64 -88q60 -61 54 -86q-3 -10 -13 -10q-12 0 -84.5 37.5t-117.5 37.5q-14 0 -26 -3q-39 -9 -61 -33q-28 -30 -39 -36q-31 -17 -102 -19q-104 -2 -143 52q-28 39 -28 123q0 49 45 124t45 106q0 35 -52.5 93.5t-52.5 85.5q0 48 64 79q70 34 189 34 q84 0 147 -43q73 -48 73 -128q0 -35 -35 -63q-6 -6 -65 -43q-36 -23 -38 -42q-10 -72 77 -88q25 -5 95 34t89 39q16 0 16 -13t-51 -69.5t-50 -80.5zM454 420q2 3 2 10q0 21 -18 48t-41 27q-8 0 -16 -4q-32 -16 -38 -27q-3 -6 -3 -30q0 -20 16.5 -33.5t38.5 -13.5q47 0 59 23 zM399 671q0 -18 10 -37q11 -23 28 -27t29 19q11 18 11 37q0 38 -44 38q-34 0 -34 -30zM500 0q207 0 353.5 146.5t146.5 353.5t-146.5 353.5t-353.5 146.5t-353.5 -146.5t-146.5 -353.5t146.5 -353.5t353.5 -146.5z" />
<glyph unicode="'" horiz-adv-x="334" d="M117 497q-24 15 -58 53q-40 44 -40 68q0 20 43 31q31 8 59 8q99 0 99 -74q0 -56 -32.5 -128t-58.5 -75q-18 -2 -18 18q0 11 7 40t7 40q0 15 -8 19z" />
<glyph unicode="," horiz-adv-x="339" d="M117 -5q-24 14 -58 53q-40 44 -40 67q0 20 43 32q31 7 59 7q99 0 99 -73q0 -57 -32.5 -129t-58.5 -75q-18 -2 -18 18q0 11 7 40t7 41q0 14 -8 19z" />
<glyph unicode="-" horiz-adv-x="509" d="M275 311q14 0 32.5 7.5t32.5 7.5q31 0 53 -9t22 -23q0 -13 -22 -22t-53 -9q-13 0 -29 7.5t-36 7.5q-16 0 -43 -11v57q32 -13 43 -13zM215 330q-46 18 -84 18q-76 0 -122 -22v-63q46 -22 122 -22q38 0 84 19v70z" />
<glyph unicode="." horiz-adv-x="292" d="M100 -100q-26 0 -59 68q-30 63 -30 104q0 31 40 31q27 0 59 -13.5t51 -34.5q14 -16 14 -40q0 -27 -24 -69q-26 -46 -51 -46z" />
<glyph unicode="0" horiz-adv-x="1107" d="M447 557q17 -87 37.5 -120.5t49.5 -33.5q56 0 56 171q0 36 -21 57q-20 18 -48 18q-30 0 -53 -20t-23 -53q0 -10 2 -19zM554 1000q-207 0 -353.5 -146.5t-146.5 -353.5t146.5 -353.5t353.5 -146.5t353.5 146.5t146.5 353.5t-146.5 353.5t-353.5 146.5zM546 132 q-99 0 -193 166q-92 161 -92 317q0 49 12 88q19 62 97 95q70 31 166 31q101 0 180 -32q85 -36 102 -94q12 -39 12 -89q0 -156 -91 -316q-95 -166 -193 -166z" />
<glyph unicode="1" horiz-adv-x="1107" d="M554 600q-207 0 -353.5 -146.5t-146.5 -353.5t146.5 -353.5t353.5 -146.5t353.5 146.5t146.5 353.5t-146.5 353.5t-353.5 146.5zM543 -253q-26 3 -41 116q-10 109 -21 218q-13 127 -34 151q-24 28 -73 47q-36 14 -36 32q0 6 1 13q9 33 91 76.5t146 43.5q34 0 53 -16 q25 -19 25 -131q0 -157 -38 -352q-39 -202 -73 -198z" />
<glyph unicode="2" horiz-adv-x="1107" d="M307 249q0 48 98.5 181.5t98.5 182.5q0 28 -21 45q-42 35 -105 48q-44 7 -89 13q-38 8 -39 31q-3 43 87 73q85 29 197 29t187 -30q86 -35 96 -101q1 -12 1 -24q0 -76 -75 -149q-19 -18 -143 -110q-79 -58 -83 -97q-5 -45 73 -56l146 -10q80 -9 80 -47q0 -33 -76 -54 q-70 -19 -170 -19q-86 0 -152 15q-111 23 -111 79zM554 0q207 0 353.5 146.5t146.5 353.5t-146.5 353.5t-353.5 146.5t-353.5 -146.5t-146.5 -353.5t146.5 -353.5t353.5 -146.5z" />
<glyph unicode="3" horiz-adv-x="1107" d="M554 600q-207 0 -353.5 -146.5t-146.5 -353.5t146.5 -353.5t353.5 -146.5t353.5 146.5t146.5 353.5t-146.5 353.5t-353.5 146.5zM381 -231q5 37 98 93t93 83q0 9 -65 46q-72 40 -92 79q-3 7 -3 14q0 24 77 68t77 75q0 17 -17 36q-34 37 -110 46q-59 6 -119 11 q-56 10 -58 54q-2 32 59 50q57 16 147 16q134 0 238 -34q119 -40 125 -107q6 -72 -36 -114q-23 -23 -81 -48q-45 -21 -46 -38q-1 -19 48 -36q77 -28 92 -37q51 -28 51 -72q0 -87 -158 -153q-136 -57 -255 -57q-68 0 -65 25z" />
<glyph unicode="4" horiz-adv-x="1107" d="M551 616q-18 1 -59 -52t-41 -78q0 -17 37 -17q35 0 64 11q17 7 17 75q0 60 -18 61zM554 1000q-207 0 -353.5 -146.5t-146.5 -353.5t146.5 -353.5t353.5 -146.5t353.5 146.5t146.5 353.5t-146.5 353.5t-353.5 146.5zM684 341q-2 -4 -14 -91q-11 -71 -32 -71q-14 0 -42 42 q-42 64 -53 78q-35 40 -64 35q-1 0 -71 -14q-49 -10 -79 -10q-81 0 -89 68q-6 50 84 175q84 117 188 217q111 105 159 105q13 0 19 -8q29 -35 29 -107q0 -50 -16.5 -136.5t-16.5 -102.5q0 -14 4 -18q9 -9 59 -40q40 -24 40 -40q0 -13 -46 -37q-50 -26 -59 -45z" />
<glyph unicode="5" horiz-adv-x="1107" d="M554 600q-207 0 -353.5 -146.5t-146.5 -353.5t146.5 -353.5t353.5 -146.5t353.5 146.5t146.5 353.5t-146.5 353.5t-353.5 146.5zM368 -250q1 30 108.5 110t107.5 109q0 30 -42 52q-26 14 -94 35t-92 34q-28 14 -43 65q-14 47 -14 108q0 56 12 96q13 44 34 52 q64 22 255 22q179 0 183 -33q2 -15 -76 -36q-112 -32 -143 -45q-78 -32 -76 -73q2 -28 89 -74q81 -40 161 -80q85 -46 84 -77q-4 -76 -90 -146q-72 -57 -179 -97q-96 -36 -153 -36q-32 0 -32 14z" />
<glyph unicode="6" horiz-adv-x="1107" d="M554 450q-19 -7 -31 -33t-12 -54q0 -54 37 -54q32 0 52 22.5t20 54.5q0 69 -45 69q-10 0 -21 -5zM554 1000q-207 0 -353.5 -146.5t-146.5 -353.5t146.5 -353.5t353.5 -146.5t353.5 146.5t146.5 353.5t-146.5 353.5t-353.5 146.5zM256 505q9 179 184 280q133 78 271 78 q60 0 57 -19q-5 -28 -66 -71q-100 -71 -108 -77q-55 -48 -50 -91q4 -37 76 -42q101 -7 130 -20q69 -32 73 -136q2 -69 -118 -154q-124 -88 -242 -88q-100 0 -154 74q-63 87 -53 266z" />
<glyph unicode="7" horiz-adv-x="1107" d="M554 600q-207 0 -353.5 -146.5t-146.5 -353.5t146.5 -353.5t353.5 -146.5t353.5 146.5t146.5 353.5t-146.5 353.5t-353.5 146.5zM384 -251q0 33 66 136q59 93 119 186q61 105 53 144q-8 43 -89 72q-72 18 -144.5 37.5t-69.5 42.5q4 23 82 41t172 18q97 0 164 -20 q104 -32 104 -107q0 -79 -95 -223q-84 -127 -193.5 -237.5t-151.5 -110.5q-17 0 -17 21z" />
<glyph unicode="8" horiz-adv-x="1107" d="M575 455q-56 6 -56 -37q0 -19 19.5 -40.5t35.5 -21.5q19 0 40 14.5t21 32.5q0 17 -17.5 33t-42.5 19zM552 611q28 3 33 13q1 1 5 35q3 24 -18.5 37t-49.5 13q-22 0 -40 -9q-23 -12 -23 -31q0 -27 30 -45t63 -13zM554 1000q-207 0 -353.5 -146.5t-146.5 -353.5 t146.5 -353.5t353.5 -146.5t353.5 146.5t146.5 353.5t-146.5 353.5t-353.5 146.5zM809 668q-5 -30 -60 -76t-55 -67q0 -15 28 -35q45 -31 54 -40q28 -28 28 -62q0 -18 -7 -39q-36 -95 -114 -148q-73 -50 -162 -50q-90 0 -128 22q-52 30 -52 115q0 36 30 82q45 69 55 90 q3 8 3 16q0 31 -79 79.5t-79 76.5q0 96 83 158q75 58 172 58q100 0 176 -28q109 -41 109 -128q0 -12 -2 -24z" />
<glyph unicode="9" horiz-adv-x="1107" d="M507 290q-46 -9 -46 -54q0 -28 31 -48t59 -20q17 0 30 7q5 3 5 16q0 32 -21 66q-25 39 -58 33zM554 600q-207 0 -353.5 -146.5t-146.5 -353.5t146.5 -353.5t353.5 -146.5t353.5 146.5t146.5 353.5t-146.5 353.5t-353.5 146.5zM838 104q-6 -86 -94 -180q-74 -78 -179 -138 q-97 -55 -145 -55q-25 0 -24 18q2 33 46 71q38 31 76 63q38 39 32 79q-5 36 -70 63q-104 43 -121 55q-68 43 -79 121q-3 21 -3 41q0 186 264 186q138 0 216 -71q83 -74 83 -216q0 -18 -2 -37z" />
<glyph unicode=":" horiz-adv-x="278" d="M120 150q-5 -3 -10 -3q-22 0 -41 47q-18 43 -18 82q0 40 43 40q33 0 74 -20q49 -23 49 -53q0 -40 -97 -93zM68 112q-48 0 -57 -23q-3 -7 -3 -18q0 -41 23 -96q25 -59 49 -59q5 0 9 3q28 15 55 52q30 41 30 73q0 33 -38 53q-32 15 -68 15z" />
<glyph unicode=";" horiz-adv-x="358" d="M122 -42q-30 18 -65 48q-45 40 -45 61q0 6 3 9q13 16 63.5 33.5t94.5 17.5q71 0 71 -54q0 -58 -47 -150t-76 -96q-16 -1 -16 15q0 12 12 49.5t12 50.5q0 12 -7 16zM216 349q-27 30 -77 30q-21 0 -42 -8q-26 -10 -26 -29q0 -31 50 -85t83 -54q20 0 32 23q10 20 10 42 q0 47 -30 81z" />
<glyph unicode="?" horiz-adv-x="541" d="M230 477q-17 46 -57 74q-30 22 -77 36q-35 9 -69 18q-19 6 -19 13q0 14 61 25.5t132 11.5q81 0 124 -17q62 -24 98.5 -64t36.5 -83q0 -81 -121 -113q-41 -11 -73 -51q-4 -5 -43 -66q-20 -31 -36 -27q-9 2 -9 16q0 18 27.5 95.5t27.5 110.5q0 12 -3 21zM240 133 q-34 24 -92 24q-59 0 -76 -24q-3 -4 -3 -10q0 -37 49 -99q53 -66 97 -66q13 0 25 8q44 29 44 79q0 58 -44 88z" />
<glyph unicode="A" d="M401 283q0 -66 20 -114q9 -22 28 -22q39 0 82 58q3 3 3 10q0 30 -40 87t-64 57q-29 0 -29 -76zM500 600q-207 0 -353.5 -146.5t-146.5 -353.5t146.5 -353.5t353.5 -146.5t353.5 146.5t146.5 353.5t-146.5 353.5t-353.5 146.5zM571 -15.5q-28 11.5 -54 11.5 q-46 0 -125 -34q-56 -23 -97 -59q-11 -9 -50 -52q-21 -23 -37 -23q-7 0 -15 4q-14 5 -14 55q0 150 72 370q83 251 173 259q69 7 183 -138q98 -124 184 -296q83 -167 83 -230q0 -33 -31 -33q-32 0 -109 65q-84 70 -109.5 79.5t-53.5 21z" />
<glyph unicode="B" d="M538 262q0 23 -36 36q-28 10 -64 10q-40 0 -40 -29q0 -26 27 -49q18 -16 47 -16q27 0 46.5 13t19.5 35zM460 31q0 -21 19.5 -45.5t42.5 -30.5q11 -4 22 -4q49 0 49 52q0 25 -31 42q-27 14 -60 14q-25 0 -33.5 -8.5t-8.5 -19.5zM500 600q-207 0 -353.5 -146.5 t-146.5 -353.5t146.5 -353.5t353.5 -146.5t353.5 146.5t146.5 353.5t-146.5 353.5t-353.5 146.5zM761 -72q-12 -62 -134 -139q-116 -74 -183 -74q-17 0 -25 7q-36 30 -125 271q-94 251 -94 347q0 26 8 35q31 37 185 37q140 0 256 -30q131 -35 132 -87q-2 -47 -17 -83 q-38 -87 -137 -107q66 -14 97 -39q42 -32 42 -93q0 -20 -5 -45z" />
<glyph unicode="C" horiz-adv-x="1111" d="M502 600q-207 0 -353.5 -146.5t-146.5 -353.5t146.5 -353.5t353.5 -146.5t353.5 146.5t146.5 353.5t-146.5 353.5t-353.5 146.5zM728 175q-22 0 -81 8t-89 8q-122 0 -125 -115q-1 -67 67 -139q39 -42 127 -106q70 -49 70 -62q1 -19 -43 -19q-70 0 -179 41 q-123 46 -202 115q-96 83 -96 177q0 178 103 277q91 87 229 87q104 0 195 -83q85 -76 85 -142q0 -21 -13 -34t-48 -13z" />
<glyph unicode="D" d="M414 204q-18 -15 -18 -76q0 -75 18 -88q8 -6 26 -6q31 0 55 17q30 21 33 62q3 44 -30 73q-27 25 -60 25q-16 0 -24 -7zM499 600q-207 0 -353.5 -146.5t-146.5 -353.5t146.5 -353.5t353.5 -146.5t353.5 146.5t146.5 353.5t-146.5 353.5t-353.5 146.5zM327 -264 q-24 28 -57 229q-34 207 -34 342q0 101 23 114q9 6 29 6q71 0 207 -49q148 -53 248 -122q120 -83 120 -161q0 -63 -112 -155q-95 -79 -227 -146q-126 -64 -178 -64q-14 0 -19 6z" />
<glyph unicode="E" horiz-adv-x="1109" d="M500 600q-207 0 -353.5 -146.5t-146.5 -353.5t146.5 -353.5t353.5 -146.5t353.5 146.5t146.5 353.5t-146.5 353.5t-353.5 146.5zM274 -231q-19 28 -31 133q-11 98 -11 217q0 252 42 288q44 40 257 40q92 0 155 -10q68 -11 68 -30q-1 -21 -87 -54q-80 -29 -160 -59 q-87 -35 -90 -62t52 -48q52 -16 104.5 -34t46.5 -43q-6 -30 -110 -77q-98 -44 -93 -67q4 -19 93 -23q81 -3 163 -5q88 -6 90 -29q4 -35 -161 -95.5t-266 -60.5q-49 0 -62 19z" />
<glyph unicode="F" d="M500 600q-207 0 -353.5 -146.5t-146.5 -353.5t146.5 -353.5t353.5 -146.5t353.5 146.5t146.5 353.5t-146.5 353.5t-353.5 146.5zM456 198q-3 -44 58 -65l116 -26q63 -15 63 -44q1 -32 -54 -49q-6 -2 -108 -23q-65 -13 -79 -33q-11 -16 -40 -78q-30 -67 -49 -97 q-32 -49 -62 -58q-27 -8 -43 97q-15 96 -15 232q0 127 13 216q16 99 45 112q35 16 131 27.5t191 11.5q179 0 183 -39q2 -24 -86 -52q-167 -51 -168 -51q-92 -36 -96 -81z" />
<glyph unicode="G" d="M500 600q-207 0 -353.5 -146.5t-146.5 -353.5t146.5 -353.5t353.5 -146.5t353.5 146.5t146.5 353.5t-146.5 353.5t-353.5 146.5zM540 -56q44 19 44 54q0 20 -17.5 57t-17.5 49q0 25 29 25q39 0 107 -48q65 -46 79 -77q2 -5 2 -11q0 -46 -78.5 -149t-112.5 -112 q-25 -6 -121 66q-105 80 -179 174q-92 118 -92 212q0 141 118 203q91 47 234 41q89 -3 165 -74q68 -64 68 -121q0 -42 -36 -42q-24 0 -104.5 36.5t-118.5 36.5q-53 0 -71 -57q-6 -19 -6 -44q0 -69 34.5 -145t65.5 -76q4 0 8 2z" />
<glyph unicode="H" d="M500 600q-207 0 -353.5 -146.5t-146.5 -353.5t146.5 -353.5t353.5 -146.5t353.5 146.5t146.5 353.5t-146.5 353.5t-353.5 146.5zM820 -221q-8 -3 -15 -3q-42 0 -103 117q-71 136 -113 166q-63 44 -104 44q-42 0 -93 -58q-20 -22 -43 -96q-28 -90 -41 -116 q-29 -56 -67 -56q-7 0 -14 2q-33 7 -50 101q-16 82 -16 209q0 142 18 255q19 120 48 128q5 1 9 1q28 0 55 -59q23 -56 47 -111q31 -60 69 -61q65 -2 90 2q18 3 48 17q25 12 29 67q2 48 5 95q8 48 43 49q50 1 135 -249q84 -245 84 -379q0 -58 -21 -65z" />
<glyph unicode="I" horiz-adv-x="1107" d="M499 600q-207 0 -353.5 -146.5t-146.5 -353.5t146.5 -353.5t353.5 -146.5t353.5 146.5t146.5 353.5t-146.5 353.5t-353.5 146.5zM438 -258q-24 -11 -40 93q-15 97 -15 233q0 288 55 325q69 45 106 45q40 0 80 -45q12 -13 12 -53q0 -115 -77.5 -347t-120.5 -251z" />
<glyph unicode="J" d="M500 600q-207 0 -353.5 -146.5t-146.5 -353.5t146.5 -353.5t353.5 -146.5t353.5 146.5t146.5 353.5t-146.5 353.5t-353.5 146.5zM662 -27q-20 -66 -79.5 -126t-123.5 -77q-11 -3 -27 -3q-65 0 -124 34q-69 40 -62 103q3 27 41 27q6 0 20 -1h22q94 0 121 103q6 21 6 48 q0 50 -25 154t-25 137q0 40 22 53q66 39 136 39q62 0 98 -35q33 -32 33 -168q0 -181 -33 -288z" />
<glyph unicode="K" d="M500 600q-207 0 -353.5 -146.5t-146.5 -353.5t146.5 -353.5t353.5 -146.5t353.5 146.5t146.5 353.5t-146.5 353.5t-353.5 146.5zM802 -242q-27 0 -90 64l-116 118q-69 63 -109 63q-50 0 -63 -58q-1 -6 -7 -110q-4 -63 -31 -69q-43 -11 -127 258q-82 262 -82 383 q0 40 13 43q5 2 11 2q30 0 74 -51q38 -48 77 -95q47 -53 87 -55q39 -3 112 50q15 11 124 100q66 55 87 55q15 0 15 -20q0 -30 -80 -137q-85 -111 -92 -146q-7 -36 105 -180q115 -148 115 -188q0 -27 -23 -27z" />
<glyph unicode="L" horiz-adv-x="1110" d="M502 600q-207 0 -353.5 -146.5t-146.5 -353.5t146.5 -353.5t353.5 -146.5t353.5 146.5t146.5 353.5t-146.5 353.5t-353.5 146.5zM315 -175q-26 26 -42 148q-15 110 -15 243q0 110 11 180q12 78 33 77q28 -1 64 -120q31 -116 62 -231q36 -134 61 -160t154 -68 q112 -37 116 -69q2 -23 -61 -36q-59 -13 -144 -13q-191 0 -239 49z" />
<glyph unicode="M" d="M500 600q-208 0 -354 -146.5t-146 -353.5t146 -353.5t354 -146.5q207 0 353.5 146.5t146.5 353.5t-146.5 353.5t-353.5 146.5zM817 -209q-5 -2 -10 -2q-31 0 -49 58q-12 53 -25 107q-16 57 -44 57t-55.5 -58t-53.5 -115q-34 -63 -75 -70t-71 58q-23 65 -47 130 q-29 77 -67 88q-6 2 -12 2q-30 0 -44 -68q-10 -66 -20 -131q-15 -72 -50 -79t-60 107q-24 108 -24 249q0 120 19 205q22 97 65 123q19 11 38 11q50 0 111 -79q49 -74 98 -147q53 -78 86 -75t81 82l82 144q47 76 81 76q14 0 26 -12q35 -33 57 -159q20 -115 20 -248 q0 -240 -57 -254z" />
<glyph unicode="N" horiz-adv-x="1111" d="M502 600q-207 0 -353.5 -146.5t-146.5 -353.5t146.5 -353.5t353.5 -146.5t353.5 146.5t146.5 353.5t-146.5 353.5t-353.5 146.5zM677 -265q-7 -3 -15 -3q-39 0 -109 74q-58 68 -117 136q-64 72 -90 69q-27 -3 -42 -65q-10 -58 -21 -117q-15 -67 -43 -80q-26 -12 -43 101 q-17 106 -17 250q0 129 14 216q16 99 46 111q7 2 14 2q41 0 126 -75q72 -69 144 -139q80 -74 109 -74q28 0 55 76q25 69 49 139q33 74 75 71q31 -3 31 -95q0 -143 -58 -357q-59 -221 -108 -240z" />
<glyph unicode="O" d="M395 151q0 -72 41 -119q34 -38 66 -38q35 0 45 69q4 23 4 88q0 40 -23 61.5t-54 21.5q-32 0 -55.5 -22t-23.5 -61zM500 600q-207 0 -353.5 -146.5t-146.5 -353.5t146.5 -353.5t353.5 -146.5t353.5 146.5t146.5 353.5t-146.5 353.5t-353.5 146.5zM553 -276q-60 -4 -157 90 q-94 91 -162 214q-75 135 -75 235q0 74 98 118q89 39 216 39q128 0 217 -39q98 -44 98 -118q0 -192 -53 -345q-65 -187 -182 -194z" />
<glyph unicode="P" d="M500 600q-207 0 -353.5 -146.5t-146.5 -353.5t146.5 -353.5t353.5 -146.5t353.5 146.5t146.5 353.5t-146.5 353.5t-353.5 146.5zM393 -189q-25 -72 -76 -79q-29 -3 -44 80q-14 73 -14 194q0 137 16 255q17 126 42 148q22 20 91 20q135 0 257 -60q147 -72 148 -187 q1 -72 -71 -105q-13 -6 -150 -41q-95 -25 -126.5 -68.5t-72.5 -156.5zM474 282q-16 -29 -16 -71q0 -56 44 -56q33 0 70.5 22t37.5 44q0 27 -45 48q-40 18 -74 18q-15 0 -17 -5z" />
<glyph unicode="Q" horiz-adv-x="1110" d="M502 600q-207 0 -353.5 -146.5t-146.5 -353.5t146.5 -353.5t353.5 -146.5t353.5 146.5t146.5 353.5t-146.5 353.5t-353.5 146.5zM768 -250q-11 0 -68 26t-84 26q-13 0 -22 -4q-47 -23 -99 -23q-110 0 -183 96q-86 114 -86 334q0 105 53 170q58 72 163 72q66 0 145 -29 q165 -60 165 -245q0 -66 -21 -134q-18 -57 -36 -78q-2 -3 -2 -9q0 -20 43 -99t43 -94q0 -9 -11 -9zM488 260q-17 11 -31 11q-46 0 -44 -75q1 -48 25 -87t48 -39q12 0 19.5 30t7.5 68q0 75 -25 92z" />
<glyph unicode="R" d="M396 252q0 -41 26 -52q10 -3 25 -3q39 0 80 16q46 18 53 41t-37 46t-85 23q-62 0 -62 -71zM500 600q-207 0 -353.5 -146.5t-146.5 -353.5t146.5 -353.5t353.5 -146.5t353.5 146.5t146.5 353.5t-146.5 353.5t-353.5 146.5zM678 95q-8 -8 -8 -21q0 -33 68 -138.5t68 -138.5 q0 -30 -28 -30q-31 0 -106 63q-65 57 -131 114q-74 59 -108 51q-37 -7 -65 -64q-23 -52 -45 -103q-27 -55 -61 -60q-30 -4 -49 99q-18 95 -18 231q0 127 16 221q18 104 51 129q22 16 74 16q129 0 325.5 -79t196.5 -133q0 -38 -35 -67q-19 -16 -75 -45q-52 -26 -70 -45z" />
<glyph unicode="S" d="M500 600q-208 0 -354 -146.5t-146 -353.5t146 -353.5t354 -146.5q207 0 353.5 146.5t146.5 353.5t-146.5 353.5t-353.5 146.5zM275 -204q0 20 68 41q114 35 125 39q65 28 58 64q-6 28 -100 77q-125 67 -168 101q-90 72 -90 157q0 34 14 70q34 93 235 93q123 0 244 -33 t127 -65q5 -30 -62 -37.5t-133 -14.5q-73 -11 -73 -43q-1 -31 78 -73q120 -64 148 -85q79 -60 79 -134q0 -86 -147 -152q-133 -60 -270 -60q-40 0 -77 10q-56 15 -56 45z" />
<glyph unicode="T" horiz-adv-x="1110" d="M502 600q-207 0 -353.5 -146.5t-146.5 -353.5t146.5 -353.5t353.5 -146.5t353.5 146.5t146.5 353.5t-146.5 353.5t-353.5 146.5zM773 383q-10 -42 -77 -66q-78 -27 -102 -63q-13 -20 -13 -77q0 -55 16.5 -194t16.5 -185q0 -62 -20 -66q-27 -4 -70 121q-37 122 -74 245 q-43 140 -68 161q-21 16 -121 61q-73 32 -67 59q4 19 124 35q117 15 244 15q222 0 211 -46z" />
<glyph unicode="U" d="M500 600q-208 0 -354 -146.5t-146 -353.5t146 -353.5t354 -146.5q207 0 353.5 146.5t146.5 353.5t-146.5 353.5t-353.5 146.5zM841 81q-4 -110 -85 -223q-102 -143 -257 -143q-159 0 -238 79q-65 66 -71 178q0 15 -12 153q-9 111 -9 171q0 115 31 116q23 1 71 -111 q70 -163 96 -208q65 -111 127 -110q94 3 155 113q31 58 75 205q32 110 56 111q63 1 63 -246q0 -37 -2 -85z" />
<glyph unicode="V" d="M500 600q-207 0 -353.5 -146.5t-146.5 -353.5t146.5 -353.5t353.5 -146.5t353.5 146.5t146.5 353.5t-146.5 353.5t-353.5 146.5zM579 -331q-52 -3 -164 152q-97 134 -188 309q-89 172 -89 221q0 15 11 15q22 0 92 -83q109 -128 136 -156q84 -84 138 -88q56 -4 126 84 q20 24 109 162q55 85 78 78q10 -3 10 -36q0 -74 -44 -232q-45 -165 -101 -284q-65 -139 -114 -142z" />
<glyph unicode="W" horiz-adv-x="1110" d="M502 600q-208 0 -354 -146.5t-146 -353.5t146 -353.5t354 -146.5q207 0 353.5 146.5t146.5 353.5t-146.5 353.5t-353.5 146.5zM716 -272q-4 -2 -8 -2q-27 0 -61 75q-29 68 -57 136q-34 71 -63 65q-29 -5 -61 -73q-27 -62 -55 -124q-35 -68 -73 -73q-52 -6 -125 220 q-70 220 -70 356q0 67 23 72q36 9 78 -68l66 -146q38 -80 64 -76q26 3 49 82q19 72 37 145q23 77 49 77q25 1 46 -65l34 -128q22 -70 50 -77q28 -6 64 64q30 65 60 131q35 69 61 61q19 -5 19 -83q0 -136 -44 -341q-45 -213 -83 -228z" />
<glyph unicode="X" d="M500 600q-207 0 -353.5 -146.5t-146.5 -353.5t146.5 -353.5t353.5 -146.5t353.5 146.5t146.5 353.5t-146.5 353.5t-353.5 146.5zM799 -218q-25 0 -78 37q-85 57 -103 67q-65 37 -119 37q-13 0 -26 -2q-55 -10 -106 -47q-11 -8 -73 -66q-36 -32 -59 -32q-17 0 -34 15 q-5 4 -5 12q0 24 75 136t75 153q0 8 -3 15q-24 64 -95 178q-59 94 -59 121q0 25 22 25q25 0 122 -77.5t137 -77.5q35 0 143 79.5t147 79.5q40 0 40 -38q0 -33 -72 -129q-75 -100 -81 -144q-5 -42 89 -158q96 -119 96 -153q0 -31 -33 -31z" />
<glyph unicode="Y" d="M500 600q-208 0 -354 -146.5t-146 -353.5t146 -353.5t354 -146.5q207 0 353.5 146.5t146.5 353.5t-146.5 353.5t-353.5 146.5zM618 -9l-30 -172q-27 -117 -70 -121q-31 -3 -46 46q-2 8 -24 124q-19 95 -47 158q-33 75 -145 203q-95 110 -95 141q0 25 21 25 q29 0 149.5 -91t164.5 -94q47 -3 166 88.5t147 91.5q22 0 22 -21q0 -40 -102 -191q-105 -157 -111 -187z" />
<glyph unicode="Z" d="M500 600q-207 0 -353.5 -146.5t-146.5 -353.5t146.5 -353.5t353.5 -146.5t353.5 146.5t146.5 353.5t-146.5 353.5t-353.5 146.5zM479 -77q9 -28 75 -52q58 -17 117 -35t57 -37q-2 -21 -88 -39.5t-182 -18.5q-219 0 -219 91q0 50 70 145q8 11 130 161q70 86 70 113t-61 48 l-114 34q-62 21 -63 46q-2 23 75 41t170 18q223 0 223 -89q0 -50 -72 -149q-64 -83 -129 -166q-66 -86 -59 -111z" />
<glyph unicode="a" horiz-adv-x="1086" d="M401 683q0 -66 20 -114q9 -22 28 -22q39 0 82 58q3 3 3 10q0 30 -40 87t-64 57q-29 0 -29 -76zM500 1000q-207 0 -353.5 -146.5t-146.5 -353.5t146.5 -353.5t353.5 -146.5t353.5 146.5t146.5 353.5t-146.5 353.5t-353.5 146.5zM571 384.5q-28 11.5 -54 11.5 q-46 0 -125 -34q-56 -23 -97 -59q-11 -9 -50 -52q-21 -23 -37 -23q-7 0 -15 4q-14 5 -14 55q0 150 72 370q83 251 173 259q69 7 183 -138q98 -124 184 -296q83 -167 83 -230q0 -33 -31 -33q-32 0 -109 65q-84 70 -109.5 79.5t-53.5 21z" />
<glyph unicode="b" horiz-adv-x="1087" d="M538 662q0 23 -36 36q-28 10 -64 10q-40 0 -40 -29q0 -26 27 -49q18 -16 47 -16q27 0 46.5 13t19.5 35zM460 431q0 -21 19.5 -45.5t42.5 -30.5q11 -4 22 -4q49 0 49 52q0 25 -31 42q-27 14 -60 14q-25 0 -33.5 -8.5t-8.5 -19.5zM500 1000q-207 0 -353.5 -146.5 t-146.5 -353.5t146.5 -353.5t353.5 -146.5t353.5 146.5t146.5 353.5t-146.5 353.5t-353.5 146.5zM761 328q-12 -62 -134 -139q-116 -74 -183 -74q-17 0 -25 7q-36 30 -125 271q-94 251 -94 347q0 26 8 35q31 37 185 37q140 0 256 -30q131 -35 132 -87q-2 -47 -17 -83 q-38 -87 -137 -107q66 -14 97 -39q42 -32 42 -93q0 -20 -5 -45z" />
<glyph unicode="c" horiz-adv-x="1089" d="M502 1000q-207 0 -353.5 -146.5t-146.5 -353.5t146.5 -353.5t353.5 -146.5t353.5 146.5t146.5 353.5t-146.5 353.5t-353.5 146.5zM728 575q-22 0 -81 8t-89 8q-122 0 -125 -115q-1 -67 67 -139q39 -42 127 -106q70 -49 70 -62q1 -19 -43 -19q-70 0 -179 41 q-123 46 -202 115q-96 83 -96 177q0 178 103 277q91 87 229 87q104 0 195 -83q85 -76 85 -142q0 -21 -13 -34t-48 -13z" />
<glyph unicode="d" horiz-adv-x="1086" d="M414 604q-18 -15 -18 -76q0 -75 18 -88q8 -6 26 -6q31 0 55 17q30 21 33 62q3 44 -30 73q-27 25 -60 25q-16 0 -24 -7zM499 1000q-207 0 -353.5 -146.5t-146.5 -353.5t146.5 -353.5t353.5 -146.5t353.5 146.5t146.5 353.5t-146.5 353.5t-353.5 146.5zM327 136 q-24 28 -57 229q-34 207 -34 342q0 101 23 114q9 6 29 6q71 0 207 -49q148 -53 248 -122q120 -83 120 -161q0 -63 -112 -155q-95 -79 -227 -146q-126 -64 -178 -64q-14 0 -19 6z" />
<glyph unicode="e" horiz-adv-x="1087" d="M500 1000q-207 0 -353.5 -146.5t-146.5 -353.5t146.5 -353.5t353.5 -146.5t353.5 146.5t146.5 353.5t-146.5 353.5t-353.5 146.5zM274 169q-19 28 -31 133q-11 98 -11 217q0 252 42 288q44 40 257 40q92 0 155 -10q68 -11 68 -30q-1 -21 -87 -54q-80 -29 -160 -59 q-87 -35 -90 -62t52 -48q52 -16 104.5 -34t46.5 -43q-6 -30 -110 -77q-98 -44 -93 -67q4 -19 93 -23q81 -3 163 -5q88 -6 90 -29q4 -35 -161 -95.5t-266 -60.5q-49 0 -62 19z" />
<glyph unicode="f" horiz-adv-x="1087" d="M500 1000q-207 0 -353.5 -146.5t-146.5 -353.5t146.5 -353.5t353.5 -146.5t353.5 146.5t146.5 353.5t-146.5 353.5t-353.5 146.5zM456 598q-3 -44 58 -65l116 -26q63 -15 63 -44q1 -32 -54 -49q-6 -2 -108 -23q-65 -13 -79 -33q-11 -16 -40 -78q-30 -67 -49 -97 q-32 -49 -62 -58q-27 -8 -43 97q-15 96 -15 232q0 127 13 216q16 99 45 112q35 16 131 27.5t191 11.5q179 0 183 -39q2 -24 -86 -52q-167 -51 -168 -51q-92 -36 -96 -81z" />
<glyph unicode="g" horiz-adv-x="1087" d="M500 1000q-207 0 -353.5 -146.5t-146.5 -353.5t146.5 -353.5t353.5 -146.5t353.5 146.5t146.5 353.5t-146.5 353.5t-353.5 146.5zM540 344q44 19 44 54q0 20 -17.5 57t-17.5 49q0 25 29 25q39 0 107 -48q65 -46 79 -77q2 -5 2 -11q0 -46 -78.5 -149t-112.5 -112 q-25 -6 -121 66q-105 80 -179 174q-92 118 -92 212q0 141 118 203q91 47 234 41q89 -3 165 -74q68 -64 68 -121q0 -42 -36 -42q-24 0 -104.5 36.5t-118.5 36.5q-53 0 -71 -57q-6 -19 -6 -44q0 -69 34.5 -145t65.5 -76q4 0 8 2z" />
<glyph unicode="h" horiz-adv-x="1087" d="M500 1000q-207 0 -353.5 -146.5t-146.5 -353.5t146.5 -353.5t353.5 -146.5t353.5 146.5t146.5 353.5t-146.5 353.5t-353.5 146.5zM820 179q-8 -3 -15 -3q-42 0 -103 117q-71 136 -113 166q-63 44 -104 44q-42 0 -93 -58q-20 -22 -43 -96q-28 -90 -41 -116 q-29 -56 -67 -56q-7 0 -14 2q-33 7 -50 101q-16 82 -16 209q0 142 18 255q19 120 48 128q5 1 9 1q28 0 55 -59q23 -56 47 -111q31 -60 69 -61q65 -2 90 2q18 3 48 17q25 12 29 67q2 48 5 95q8 48 43 49q50 1 135 -249q84 -245 84 -379q0 -58 -21 -65z" />
<glyph unicode="i" horiz-adv-x="1086" d="M499 1000q-207 0 -353.5 -146.5t-146.5 -353.5t146.5 -353.5t353.5 -146.5t353.5 146.5t146.5 353.5t-146.5 353.5t-353.5 146.5zM438 142q-24 -11 -40 93q-15 97 -15 233q0 288 55 325q69 45 106 45q40 0 80 -45q12 -13 12 -53q0 -115 -77.5 -347t-120.5 -251z" />
<glyph unicode="j" horiz-adv-x="1086" d="M500 1000q-207 0 -353.5 -146.5t-146.5 -353.5t146.5 -353.5t353.5 -146.5t353.5 146.5t146.5 353.5t-146.5 353.5t-353.5 146.5zM662 373q-20 -66 -79.5 -126t-123.5 -77q-11 -3 -27 -3q-65 0 -124 34q-69 40 -62 103q3 27 41 27q6 0 20 -1h22q94 0 121 103q6 21 6 48 q0 50 -25 154t-25 137q0 40 22 53q66 39 136 39q62 0 98 -35q33 -32 33 -168q0 -181 -33 -288z" />
<glyph unicode="k" horiz-adv-x="1086" d="M500 1000q-207 0 -353.5 -146.5t-146.5 -353.5t146.5 -353.5t353.5 -146.5t353.5 146.5t146.5 353.5t-146.5 353.5t-353.5 146.5zM802 158q-27 0 -90 64l-116 118q-69 63 -109 63q-50 0 -63 -58q-1 -6 -7 -110q-4 -63 -31 -69q-43 -11 -127 258q-82 262 -82 383 q0 40 13 43q5 2 11 2q30 0 74 -51q38 -48 77 -95q47 -53 87 -55q39 -3 112 50q15 11 124 100q66 55 87 55q15 0 15 -20q0 -30 -80 -137q-85 -111 -92 -146q-7 -36 105 -180q115 -148 115 -188q0 -27 -23 -27z" />
<glyph unicode="l" horiz-adv-x="1088" d="M502 1000q-207 0 -353.5 -146.5t-146.5 -353.5t146.5 -353.5t353.5 -146.5t353.5 146.5t146.5 353.5t-146.5 353.5t-353.5 146.5zM315 225q-26 26 -42 148q-15 110 -15 243q0 110 11 180q12 78 33 77q28 -1 64 -120q31 -116 62 -231q36 -134 61 -160t154 -68 q112 -37 116 -69q2 -23 -61 -36q-59 -13 -144 -13q-191 0 -239 49z" />
<glyph unicode="m" horiz-adv-x="1085" d="M500 1000q-208 0 -354 -146.5t-146 -353.5t146 -353.5t354 -146.5q207 0 353.5 146.5t146.5 353.5t-146.5 353.5t-353.5 146.5zM817 191q-5 -2 -10 -2q-31 0 -49 58q-12 53 -25 107q-16 57 -44 57t-55.5 -58t-53.5 -115q-34 -63 -75 -70t-71 58q-23 65 -47 130 q-29 77 -67 88q-6 2 -12 2q-30 0 -44 -68q-10 -66 -20 -131q-15 -72 -50 -79t-60 107q-24 108 -24 249q0 120 19 205q22 97 65 123q19 11 38 11q50 0 111 -79q49 -74 98 -147q53 -78 86 -75t81 82l82 144q47 76 81 76q14 0 26 -12q35 -33 57 -159q20 -115 20 -248 q0 -240 -57 -254z" />
<glyph unicode="n" horiz-adv-x="1089" d="M502 1000q-207 0 -353.5 -146.5t-146.5 -353.5t146.5 -353.5t353.5 -146.5t353.5 146.5t146.5 353.5t-146.5 353.5t-353.5 146.5zM677 135q-7 -3 -15 -3q-39 0 -109 74q-58 68 -117 136q-64 72 -90 69q-27 -3 -42 -65q-10 -58 -21 -117q-15 -67 -43 -80q-26 -12 -43 101 q-17 106 -17 250q0 129 14 216q16 99 46 111q7 2 14 2q41 0 126 -75q72 -69 144 -139q80 -74 109 -74q28 0 55 76q25 69 49 139q33 74 75 71q31 -3 31 -95q0 -143 -58 -357q-59 -221 -108 -240z" />
<glyph unicode="o" horiz-adv-x="1087" d="M395 551q0 -72 41 -119q34 -38 66 -38q35 0 45 69q4 23 4 88q0 40 -23 61.5t-54 21.5q-32 0 -55.5 -22t-23.5 -61zM500 1000q-207 0 -353.5 -146.5t-146.5 -353.5t146.5 -353.5t353.5 -146.5t353.5 146.5t146.5 353.5t-146.5 353.5t-353.5 146.5zM553 124q-60 -4 -157 90 q-94 91 -162 214q-75 135 -75 235q0 74 98 118q89 39 216 39q128 0 217 -39q98 -44 98 -118q0 -192 -53 -345q-65 -187 -182 -194z" />
<glyph unicode="p" horiz-adv-x="1086" d="M500 1000q-207 0 -353.5 -146.5t-146.5 -353.5t146.5 -353.5t353.5 -146.5t353.5 146.5t146.5 353.5t-146.5 353.5t-353.5 146.5zM393 211q-25 -72 -76 -79q-29 -3 -44 80q-14 73 -14 194q0 137 16 255q17 126 42 148q22 20 91 20q135 0 257 -60q147 -72 148 -187 q1 -72 -71 -105q-13 -6 -150 -41q-95 -25 -126.5 -68.5t-72.5 -156.5zM474 682q-16 -29 -16 -71q0 -56 44 -56q33 0 70.5 22t37.5 44q0 27 -45 48q-40 18 -74 18q-15 0 -17 -5z" />
<glyph unicode="q" horiz-adv-x="1088" d="M502 1000q-207 0 -353.5 -146.5t-146.5 -353.5t146.5 -353.5t353.5 -146.5t353.5 146.5t146.5 353.5t-146.5 353.5t-353.5 146.5zM768 150q-11 0 -68 26t-84 26q-13 0 -22 -4q-47 -23 -99 -23q-110 0 -183 96q-86 114 -86 334q0 105 53 170q58 72 163 72q66 0 145 -29 q165 -60 165 -245q0 -66 -21 -134q-18 -57 -36 -78q-2 -3 -2 -9q0 -20 43 -99t43 -94q0 -9 -11 -9zM488 660q-17 11 -31 11q-46 0 -44 -75q1 -48 25 -87t48 -39q12 0 19.5 30t7.5 68q0 75 -25 92z" />
<glyph unicode="r" horiz-adv-x="1087" d="M396 652q0 -41 26 -52q10 -3 25 -3q39 0 80 16q46 18 53 41t-37 46t-85 23q-62 0 -62 -71zM500 1000q-207 0 -353.5 -146.5t-146.5 -353.5t146.5 -353.5t353.5 -146.5t353.5 146.5t146.5 353.5t-146.5 353.5t-353.5 146.5zM678 495q-8 -8 -8 -21q0 -33 68 -138.5 t68 -138.5q0 -30 -28 -30q-31 0 -106 63q-65 57 -131 114q-74 59 -108 51q-37 -7 -65 -64q-23 -52 -45 -103q-27 -55 -61 -60q-30 -4 -49 99q-18 95 -18 231q0 127 16 221q18 104 51 129q22 16 74 16q129 0 325.5 -79t196.5 -133q0 -38 -35 -67q-19 -16 -75 -45 q-52 -26 -70 -45z" />
<glyph unicode="s" horiz-adv-x="1087" d="M500 1000q-208 0 -354 -146.5t-146 -353.5t146 -353.5t354 -146.5q207 0 353.5 146.5t146.5 353.5t-146.5 353.5t-353.5 146.5zM275 196q0 20 68 41q114 35 125 39q65 28 58 64q-6 28 -100 77q-125 67 -168 101q-90 72 -90 157q0 34 14 70q34 93 235 93q123 0 244 -33 t127 -65q5 -30 -62 -37.5t-133 -14.5q-73 -11 -73 -43q-1 -31 78 -73q120 -64 148 -85q79 -60 79 -134q0 -86 -147 -152q-133 -60 -270 -60q-40 0 -77 10q-56 15 -56 45z" />
<glyph unicode="t" horiz-adv-x="1089" d="M502 1000q-207 0 -353.5 -146.5t-146.5 -353.5t146.5 -353.5t353.5 -146.5t353.5 146.5t146.5 353.5t-146.5 353.5t-353.5 146.5zM773 783q-10 -42 -77 -66q-78 -27 -102 -63q-13 -20 -13 -77q0 -55 16.5 -194t16.5 -185q0 -62 -20 -66q-27 -4 -70 121q-37 122 -74 245 q-43 140 -68 161q-21 16 -121 61q-73 32 -67 59q4 19 124 35q117 15 244 15q222 0 211 -46z" />
<glyph unicode="u" horiz-adv-x="1087" d="M500 1000q-208 0 -354 -146.5t-146 -353.5t146 -353.5t354 -146.5q207 0 353.5 146.5t146.5 353.5t-146.5 353.5t-353.5 146.5zM841 481q-4 -110 -85 -223q-102 -143 -257 -143q-159 0 -238 79q-65 66 -71 178q0 15 -12 153q-9 111 -9 171q0 115 31 116q23 1 71 -111 q70 -163 96 -208q65 -111 127 -110q94 3 155 113q31 58 75 205q32 110 56 111q63 1 63 -246q0 -37 -2 -85z" />
<glyph unicode="v" horiz-adv-x="1086" d="M500 1000q-207 0 -353.5 -146.5t-146.5 -353.5t146.5 -353.5t353.5 -146.5t353.5 146.5t146.5 353.5t-146.5 353.5t-353.5 146.5zM579 69q-52 -3 -164 152q-97 134 -188 309q-89 172 -89 221q0 15 11 15q22 0 92 -83q109 -128 136 -156q84 -84 138 -88q56 -4 126 84 q20 24 109 162q55 85 78 78q10 -3 10 -36q0 -74 -44 -232q-45 -165 -101 -284q-65 -139 -114 -142z" />
<glyph unicode="w" horiz-adv-x="1087" d="M502 1000q-208 0 -354 -146.5t-146 -353.5t146 -353.5t354 -146.5q207 0 353.5 146.5t146.5 353.5t-146.5 353.5t-353.5 146.5zM716 128q-4 -2 -8 -2q-27 0 -61 75q-29 68 -57 136q-34 71 -63 65q-29 -5 -61 -73q-27 -62 -55 -124q-35 -68 -73 -73q-52 -6 -125 220 q-70 220 -70 356q0 67 23 72q36 9 78 -68l66 -146q38 -80 64 -76q26 3 49 82q19 72 37 145q23 77 49 77q25 1 46 -65l34 -128q22 -70 50 -77q28 -6 64 64q30 65 60 131q35 69 61 61q19 -5 19 -83q0 -136 -44 -341q-45 -213 -83 -228z" />
<glyph unicode="x" horiz-adv-x="1086" d="M500 1000q-207 0 -353.5 -146.5t-146.5 -353.5t146.5 -353.5t353.5 -146.5t353.5 146.5t146.5 353.5t-146.5 353.5t-353.5 146.5zM799 182q-25 0 -78 37q-85 57 -103 67q-65 37 -119 37q-13 0 -26 -2q-55 -10 -106 -47q-11 -8 -73 -66q-36 -32 -59 -32q-17 0 -34 15 q-5 4 -5 12q0 24 75 136t75 153q0 8 -3 15q-24 64 -95 178q-59 94 -59 121q0 25 22 25q25 0 122 -77.5t137 -77.5q35 0 143 79.5t147 79.5q40 0 40 -38q0 -33 -72 -129q-75 -100 -81 -144q-5 -42 89 -158q96 -119 96 -153q0 -31 -33 -31z" />
<glyph unicode="y" horiz-adv-x="1085" d="M500 1000q-208 0 -354 -146.5t-146 -353.5t146 -353.5t354 -146.5q207 0 353.5 146.5t146.5 353.5t-146.5 353.5t-353.5 146.5zM618 391l-30 -172q-27 -117 -70 -121q-31 -3 -46 46q-2 8 -24 124q-19 95 -47 158q-33 75 -145 203q-95 110 -95 141q0 25 21 25 q29 0 149.5 -91t164.5 -94q47 -3 166 88.5t147 91.5q22 0 22 -21q0 -40 -102 -191q-105 -157 -111 -187z" />
<glyph unicode="z" horiz-adv-x="1086" d="M500 1000q-207 0 -353.5 -146.5t-146.5 -353.5t146.5 -353.5t353.5 -146.5t353.5 146.5t146.5 353.5t-146.5 353.5t-353.5 146.5zM479 323q9 -28 75 -52q58 -17 117 -35t57 -37q-2 -21 -88 -39.5t-182 -18.5q-219 0 -219 91q0 50 70 145q8 11 130 161q70 86 70 113 t-61 48l-114 34q-62 21 -63 46q-2 23 75 41t170 18q223 0 223 -89q0 -50 -72 -149q-64 -83 -129 -166q-66 -86 -59 -111z" />
<glyph unicode="{" horiz-adv-x="545" />
<glyph unicode="|" horiz-adv-x="545" />
<glyph unicode="}" horiz-adv-x="545" />
<glyph unicode="~" horiz-adv-x="545" />
<glyph unicode="&#xb3;" horiz-adv-x="545" />
<glyph unicode="&#xc4;" horiz-adv-x="545" />
<glyph unicode="&#xc5;" horiz-adv-x="545" />
<glyph unicode="&#xc7;" horiz-adv-x="545" />
<glyph unicode="&#xc9;" horiz-adv-x="545" />
<glyph unicode="&#xd1;" horiz-adv-x="545" />
<glyph unicode="&#xd6;" horiz-adv-x="545" />
<glyph unicode="&#xdc;" horiz-adv-x="545" />
<glyph unicode="&#x25fc;" horiz-adv-x="1000" d="M0 1000h1000v-1000h-1000v1000z" />
<glyph unicode="&#xf000;" horiz-adv-x="1081" d="M500 800q-207 0 -353.5 -146.5t-146.5 -353.5t146.5 -353.5t353.5 -146.5t353.5 146.5t146.5 353.5t-146.5 353.5t-353.5 146.5zM184 464q-5 38 0 69q8 24 30 74h150q-44 -42 -67 -74q-9 -14 -34 -69h-79zM558 472q0 26 18.5 44t43.5 18q26 0 44 -18t18 -44t-18 -44 t-44 -18q-25 0 -43.5 18t-18.5 44zM779 472q0 26 18 44t44 18t44 -18t18 -44t-18 -44t-44 -18t-44 18t-18 44zM680 270q-13 0 -13 36v0q0 36 13 36q22 -32 57 -34q10 1 19 4q23 9 37 30q13 0 13 -36v0q0 -36 -13 -36q-20 -31 -58 -34q-11 1 -20 4q-23 9 -35 30z" />
<glyph horiz-adv-x="545" />
</font>
</defs>
</svg>
